<?xml version="1.0" encoding="utf-8"?>
<!DOCTYPE svg PUBLIC "-//W3C//DTD SVG 1.1//EN" "http://www.w3.org/Graphics/SVG/1.1/DTD/svg11.dtd">
<svg version="1.1" xmlns="http://www.w3.org/2000/svg" xmlns:xlink="http://www.w3.org/1999/xlink" x="0px" y="0px" width="16px"
	 height="16px" viewBox="0 0 16 16" enable-background="new 0 0 16 16" xml:space="preserve">
<g id="Layer_4" display="none">
	<rect x="-651.5" y="-388.5" display="inline" fill="#FFFFFF" stroke="#000000" stroke-miterlimit="10" width="989" height="634"/>
</g>
<g id="Layer_2">
	<path display="none" fill="none" stroke="#000000" stroke-miterlimit="10" d="M3.242,4.117c1.32,0.991,2.367,2.75,9.25,2.75
		c-3.325,2.55-7.841,1.95-9.5,6.5"/>
	<circle fill="#4FFF52" cx="3.242" cy="4.117" r="2.367"/>
	<circle fill="#60DCFF" cx="12.492" cy="3.867" r="3.117"/>
	<circle fill="#D17BFF" cx="2.992" cy="13.367" r="2.617"/>
</g>
<g id="Layer_3" display="none">
	<circle display="inline" fill="#FFFFFF" fill-opacity="0.5" cx="7.999" cy="9.5" r="4.515"/>
</g>
<g id="Layer_1">
	<g>
		<path fill="#F58020" d="M10.785,4.885L8,1.176L5.213,4.885L0.825,6.389l2.666,3.796l0.074,4.637l3.083-0.947L7,11.581
			c-0.718-0.361-1.212-1.362-1.212-2.219c0-1.214,0.983-2.197,2.196-2.197c1.213,0,2.196,0.983,2.196,2.197
			c0,0.856-0.493,1.857-1.212,2.219l0.353,2.285l3.111,0.956l0.075-4.637l2.666-3.796L10.785,4.885z"/>
		<path fill="none" stroke="#AB4D00" stroke-miterlimit="10" d="M10.785,4.885L8,1.176L5.213,4.885L0.825,6.389l2.666,3.796
			l0.074,4.637l3.083-0.947L7,11.581c-0.718-0.361-1.212-1.362-1.212-2.219c0-1.214,0.983-2.197,2.196-2.197
			c1.213,0,2.196,0.983,2.196,2.197c0,0.856-0.493,1.857-1.212,2.219l0.353,2.285l3.111,0.956l0.075-4.637l2.666-3.796L10.785,4.885
			z"/>
	</g>
</g>
</svg>
